<svg width="32" height="40" fill="none" xmlns="http://www.w3.org/2000/svg"><path d="M16 23.904c4.228 0 7.667-3.439 7.667-7.667S20.228 8.57 16 8.57s-7.667 3.439-7.667 7.667 3.439 7.667 7.667 7.667Zm0-11.5a3.837 3.837 0 0 1 3.833 3.833A3.837 3.837 0 0 1 16 20.07a3.837 3.837 0 0 1-3.833-3.833A3.837 3.837 0 0 1 16 12.404Z" fill="#fff"/><path d="M14.889 38.88a1.912 1.912 0 0 0 2.223 0c.583-.411 14.277-10.3 14.222-22.643C31.334 7.783 24.454.904 16 .904S.667 7.783.667 16.228C.61 28.58 14.306 38.468 14.889 38.88ZM16 4.738c6.342 0 11.5 5.158 11.5 11.51.04 8.506-8.41 16.144-11.5 18.649-3.088-2.507-11.54-10.147-11.5-18.659 0-6.342 5.158-11.5 11.5-11.5Z" fill="#fff"/></svg>